Coordinates

Units are S.I. units (second, meters, Newtons, ...)
If the header above contains a line with 'inDegrees', this indicates whether rotational values are in degrees (yes) or radians (no).

inDegrees=no
nColumns=21
nRows=12
DataType=double
version=3
OpenSimVersion=4.6-2026-03-31-d6972f9e6
endheader
time	/jointset/ground_pelvis/pelvis_tilt/value	/jointset/ground_pelvis/pelvis_list/value	/jointset/ground_pelvis/pelvis_rotation/value	/jointset/ground_pelvis/pelvis_tx/value	/jointset/ground_pelvis/pelvis_ty/value	/jointset/ground_pelvis/pelvis_tz/value	/jointset/hip_r/hip_flexion_r/value	/jointset/hip_r/hip_adduction_r/value	/jointset/hip_r/hip_rotation_r/value	/jointset/walker_knee_r/knee_angle_r/value	/jointset/patellofemoral_r/knee_angle_r_beta/value	/jointset/ankle_r/ankle_angle_r/value	/jointset/subtalar_r/subtalar_angle_r/value	/jointset/hip_l/hip_flexion_l/value	/jointset/hip_l/hip_adduction_l/value	/jointset/hip_l/hip_rotation_l/value	/jointset/walker_knee_l/knee_angle_l/value	/jointset/patellofemoral_l/knee_angle_l_beta/value	/jointset/ankle_l/ankle_angle_l/value	/jointset/subtalar_l/subtalar_angle_l/value
155.996	-0.06227729025467091	-0.08592504080871471	1.500435883594868	0.7941093207474352	0.9669206205232309	-1.069887893205836	0.4969354942772281	-0.09839131553079271	0.1297712784363372	1.703717968160746	1.703717967973848	-0.2112850055135493	-0.4658715481151594	0.1810122941812567	0.06806255364958859	-0.09575279628919954	0.6374341181498209	0.637434118675565	0.2706017899064107	-0.2239193979030812
156	-0.05818388968332588	-0.08588536712270367	1.494754539045966	0.7944250274731652	0.9693385932133215	-1.069762747308836	0.5135572603793175	-0.08941985189032332	0.1332711910130837	1.690356523839022	1.690356523673348	-0.2069067352972442	-0.4609047473168461	0.1576018354422496	0.06386884262706384	-0.09997332955238944	0.6177186056999178	0.6177186061123373	0.2580862268421066	-0.2160156105432178
156.004	-0.05381140264179024	-0.08586642054510873	1.48912342717882	0.7947215871164828	0.9719411882787125	-1.069719620867625	0.5290421204714366	-0.08025579479131166	0.1359337992713216	1.6746747865554	1.674674786433637	-0.203148401216861	-0.4560823204998306	0.1338399675085021	0.05955859218914664	-0.1043754406379263	0.5969104019817516	0.596910402269496	0.243161343238652	-0.2081553164090463
156.008	-0.04917287268206687	-0.0859670399743805	1.483612876052227	0.7949941702502858	0.9746994680905572	-1.069757317862031	0.5434559573825659	-0.07096997686773365	0.1377222559385563	1.656748464467036	1.656748464406557	-0.2000521297932725	-0.4515058904404515	0.1099613489784777	0.05515515110564721	-0.1088664484701012	0.5752170682347449	0.5752170683934006	0.2258586118763158	-0.2004256635045227
156.012	-0.04428395566224615	-0.08627961288205936	1.478288801081848	0.7952389230486903	0.9775856371418803	-1.069874357056891	0.5568653338336307	-0.06162966522393161	0.1386140997326209	1.636648020801701	1.636648020813751	-0.1976533686860591	-0.4472715976897708	0.08618963053107689	0.05067718171269149	-0.1133557960111672	0.5528409487766789	0.5528409488087294	0.2062342313161616	-0.1929053154827684
156.016	-0.03916298661651717	-0.08688596492247234	1.47321080452974	0.7954530483410267	0.9805735436581766	-1.070069045673665	0.5693323204686418	-0.05229763433849353	0.1386016376727235	1.614436737966677	1.614436738056711	-0.1959782103454449	-0.4434653092799092	0.06273106798747859	0.04613919546312644	-0.1177582590283871	0.5299765701447093	0.5299765700583943	0.1843713182326112	-0.1856646402626982
156.02	-0.03383094295406341	-0.08785413256972899	1.468430643339714	0.7956348424801275	0.9836390347423315	-1.070339524591296	0.5809102207510528	-0.04303138406423158	0.1376918276429694	1.590169280217926	1.590169280386736	-0.1950410977330429	-0.4401580533888224	0.03976956251835492	0.04155227526335523	-0.1219966969571821	0.5068089615530517	0.5068089613604673	0.1603816693878714	-0.178765983134223
156.024	-0.0283113599733322	-0.08923614359779956	1.463991110765389	0.7957836911479186	0.9867601594324162	-1.070683784790525	0.5916404019666348	-0.03388255740928477	0.1359057127797543	1.563890826275304	1.563890826520357	-0.1948429447920607	-0.4374017308137278	0.01746329876600248	0.03692495754740589	-0.1260042516447875	0.4835129236719051	0.4835129233869168	0.1344069965401654	-0.1722638653773218
156.028	-0.02263026359958456	-0.09106682121908524	1.459925363813581	0.7959000273587842	0.9899172259183087	-1.071099658831228	0.6015503169444151	-0.0248966368424211	0.1332774535490925	1.53563682351533	1.535636823831956	-0.1953697176745665	-0.4352251650396869	-0.004057012652687553	0.03226425543189153	-0.1297259380499138	0.4602531765338946	0.4602531761703209	0.1066195557604971	-0.1662050063604488
156.032	-0.01681616368856481	-0.09336362651180068	1.456256687708858	0.7959852578028386	0.9930927203857702	-1.071584791618766	0.6106528046240324	-0.01611294791922056	0.1298530260953825	1.505433412004594	1.505433412386913	-0.1965915335711231	-0.4336305532233209	-0.02468829611912429	0.02757676829377434	-0.1331196372010651	0.4371852967762715	0.4371852963465291	0.07722214143725793	-0.1606280798062596
156.036	-0.01090012832950854	-0.09612747601947483	1.452998636175209	0.7960416665821366	0.9962711037850442	-1.072136596441337	0.6189466569289493	-0.007564948376150964	0.1256886929465118	1.473298537758137	1.473298538199644	-0.1984623350575175	-0.4325904190374751	-0.04435380103087866	0.02286981405056761	-0.1361565372734179	0.4144572951757525	0.4144572946900589	0.04644741462761873	-0.1555631625352807
156.04	-0.004915943351703614	-0.09934431304592302	1.450155465807464	0.7960723046365308	0.999438519389933	-1.072752205483357	0.6264182311736787	0.0007192234056814385	0.1208493491651758	1.439243725728206	1.43924372622184	-0.2009202059913394	-0.4320452687819922	-0.06300067308339026	0.01815255141249256	-0.1388210500208479	0.3922115712189546	0.3922115706851954	0.01455643700262677	-0.1510309640024948
